<?xml version="1.0" encoding="UTF-8" standalone="no"?>
<!-- Generator: Adobe Illustrator 23.1.0, SVG Export Plug-In . SVG Version: 6.00 Build 0)  -->

<svg
   version="1.1"
   id="Layer_1"
   x="0px"
   y="0px"
   viewBox="0 0 186.55 88.37"
   style="enable-background:new 0 0 186.55 88.37;"
   xml:space="preserve"
   sodipodi:docname="The Wellbeing Nook logo.svgz"
   xmlns:inkscape="http://www.inkscape.org/namespaces/inkscape"
   xmlns:sodipodi="http://sodipodi.sourceforge.net/DTD/sodipodi-0.dtd"
   xmlns="http://www.w3.org/2000/svg"
   xmlns:svg="http://www.w3.org/2000/svg"><defs
   id="defs77" /><sodipodi:namedview
   id="namedview75"
   pagecolor="#ffffff"
   bordercolor="#666666"
   borderopacity="1.0"
   inkscape:pageshadow="2"
   inkscape:pageopacity="0.0"
   inkscape:pagecheckerboard="0" />
<style
   type="text/css"
   id="style2">
	.st0{fill:#C5ADA9;}
	.st1{fill:#FFFFFF;}
	.st2{fill:#8B9581;}
</style>
<rect
   x="-1.7"
   y="-1.58"
   class="st0"
   width="191.56"
   height="93.14"
   id="rect4" />
<g
   id="g38">
	<path
   class="st1"
   d="M45.62,31.92c-1.82,0-2.37,0.62-2.95,2.44l-6.38,19.87h-1.44l-7.72-21.11l-7.41,21.11h-1.44l-6.69-19.87   c-0.62-1.85-1.17-2.44-2.99-2.44v-0.34h6.59v0.34c-2.71,0-2.78,0.58-2.16,2.44l6.14,18.29l7.41-21.08h1.44l7.69,21.08l5.9-18.29   c0.58-1.82,0.51-2.44-2.2-2.44v-0.34h6.21V31.92z"
   id="path6" />
	<path
   class="st1"
   d="M51.16,54.57c-5.77,0-8.27-3.95-8.27-8.75c0-5.84,3.91-9.1,8.58-9.1c3.91,0,5.84,2.02,5.84,4.7   c0,5.35-8.03,5.66-13.04,4.05v0.58c0,4.87,3.16,7.48,6.56,7.48c2.51,0,5.59-1.34,5.25-4.87l1.37-0.69   C57.78,51.07,55.75,54.57,51.16,54.57z M44.36,44.45c7.59,2.06,11.57-0.07,11.57-3.05c0-1.89-1.24-3.64-4.46-3.64   C47.41,37.75,44.87,40.47,44.36,44.45z"
   id="path8" />
	<path
   class="st1"
   d="M62.28,51.31c0,1.92,0.21,2.57,1.72,2.57v0.34h-4.8v-0.34c1.51,0,1.72-0.65,1.72-2.57V26.15   c0-1.92-0.21-2.57-1.72-2.57v-0.34h2.06c0.55,0.03,1.03,0.27,1.03,1.72V51.31z"
   id="path10" />
	<path
   class="st1"
   d="M68.8,51.31c0,1.92,0.21,2.57,1.72,2.57v0.34h-4.8v-0.34c1.51,0,1.72-0.65,1.72-2.57V26.15   c0-1.92-0.21-2.57-1.72-2.57v-0.34h2.06c0.55,0.03,1.03,0.27,1.03,1.72V51.31z"
   id="path12" />
	<path
   class="st1"
   d="M81.54,54.57c-2.95,0-5.46-1.61-6.73-4.33h-0.17v2.61c0,1.37-0.69,1.37-1.37,1.37V26.15   c0-1.92-0.21-2.57-1.72-2.57v-0.34h2.06c0.55,0.03,1.03,0.27,1.03,1.72v16.1h0.17c1.27-2.71,3.78-4.32,6.73-4.32   c4.43,0,7.69,3.3,7.69,8.92S85.97,54.57,81.54,54.57z M81.54,37.75c-4.6,0-6.73,3.47-6.73,7.89c0,4.43,2.13,7.89,6.73,7.89   c3.91,0,6.32-3.12,6.32-7.89S85.45,37.75,81.54,37.75z"
   id="path14" />
	<path
   class="st1"
   d="M99.91,54.57c-5.77,0-8.27-3.95-8.27-8.75c0-5.84,3.91-9.1,8.58-9.1c3.91,0,5.84,2.02,5.84,4.7   c0,5.35-8.03,5.66-13.04,4.05v0.58c0,4.87,3.16,7.48,6.56,7.48c2.51,0,5.59-1.34,5.25-4.87l1.37-0.69   C106.53,51.07,104.5,54.57,99.91,54.57z M93.11,44.45c7.59,2.06,11.57-0.07,11.57-3.05c0-1.89-1.24-3.64-4.46-3.64   C96.16,37.75,93.62,40.47,93.11,44.45z"
   id="path16" />
	<path
   class="st1"
   d="M132.86,53.89v0.34h-4.8v-0.34c1.51,0,1.72-0.65,1.72-2.57v-7.69c0-3.47-0.89-5.87-4.12-5.87   c-5.66,0-6.73,5.59-6.73,10.3v3.26c0,1.92,0.21,2.57,1.72,2.57v0.34h-4.8v-0.34c1.51,0,1.72-0.65,1.72-2.57V39.98   c0-1.92-0.21-2.57-1.72-2.57v-0.34h2.06c0.55,0.03,1.03,0.24,1.03,1.48v3.54h0.17c0.86-2.95,2.71-5.35,6.66-5.35   c4.05,0,5.39,2.78,5.39,7.24v7.35C131.14,53.23,131.35,53.89,132.86,53.89z"
   id="path18" />
	<path
   class="st1"
   d="M149.51,39.68c0.38-1.44,0.14-1.92-0.58-1.92c-0.65,0-1.2,0.51-1.54,1.1c0.96,1.06,1.54,2.47,1.54,4.05   c0,3.6-2.92,6.18-6.86,6.18c-1.27,0-2.47-0.27-3.47-0.76c-1.06,0.76-1.34,1.27-1.34,1.99c0,1.27,0.86,2.23,5.11,1.68   c4.56-0.58,7.31,0.07,7.31,3.91s-3.47,5.53-7.52,5.53c-4.57,0-8.68-1.51-7.31-6.97l1.37,0.69c-1.37,4.12,2.13,5.25,5.97,5.25   c3.91,0,6.11-1.61,6.11-4.22c0-3.05-1.92-3.4-5.94-2.88c-5.87,0.76-6.49-1.37-6.49-2.57c0-1.03,0.51-1.89,1.92-2.88   c-1.61-1.1-2.61-2.85-2.61-4.94c0-3.6,2.92-6.18,6.86-6.18c1.85,0,3.47,0.55,4.67,1.51c0.69-1.13,1.58-1.51,2.47-1.51   c1.58,0,1.96,1.27,1.68,2.27L149.51,39.68z M147.49,42.15c-0.38-2.81-2.61-4.84-6.45-4.29c-3.23,0.45-4.81,2.99-4.39,5.8   c0.38,2.81,2.61,4.84,6.49,4.29C146.32,47.5,147.9,44.96,147.49,42.15z"
   id="path20" />
	<path
   class="st1"
   d="M90.12,80.16c1.24,0,1.72-0.82,1.72-3.02V62.73c0-2.2-0.48-3.02-1.72-3.02v-1.1h2.27   c3.02,0.07,4.36,0.65,6.01,2.75l12.15,15.62V40.61c0-2.2-0.48-3.02-1.72-3.02v-1.1h5.22v1.1c-1.24,0-1.72,0.82-1.72,3.02v40.65   c-3.4,0-4.81-0.51-6.56-2.75L93.62,62.9v14.24c0,2.2,0.48,3.02,1.72,3.02v1.1h-5.22V80.16z"
   id="path22" />
	<path
   class="st1"
   d="M155.24,72.68c0,4.63-2.92,8.92-9.4,8.92c-6.49,0-9.4-4.29-9.4-8.92c0-4.63,2.92-8.92,9.4-8.92   C152.32,63.76,155.24,68.05,155.24,72.68z M150.47,73.27c0.55-4.36-0.45-7.24-3.67-7.65c-3.4-0.41-5.05,2.16-5.59,6.49   c-0.55,4.36,0.45,7.24,3.67,7.65C148.27,80.16,149.92,77.59,150.47,73.27z"
   id="path24" />
	<path
   class="st1"
   d="M134.37,72.68c0,4.63-2.92,8.92-9.4,8.92c-6.49,0-9.4-4.29-9.4-8.92c0-4.63,2.92-8.92,9.4-8.92   C131.45,63.76,134.37,68.05,134.37,72.68z M129.6,73.27c0.55-4.36-0.45-7.24-3.67-7.65c-3.4-0.41-5.05,2.16-5.59,6.49   c-0.55,4.36,0.45,7.24,3.67,7.65C127.4,80.16,129.05,77.59,129.6,73.27z"
   id="path26" />
	<path
   class="st1"
   d="M177.97,80.16v1.1c-5.35,0-7.93-0.58-9.16-5.32c-0.86-3.05-1.68-3.81-3.95-3.81l-1.99,1.48v3.54   c0,2.2,0.48,3.02,1.72,3.02v1.1h-8.17v-1.1c1.24,0,1.72-0.82,1.72-3.02V60.67c0-2.2-0.48-3.02-1.72-3.02v-1.1h2.27   c2.68,0,4.19,0.21,4.19,3.02v11.81l6.56-4.84c1.75-1.27,2.06-1.34-1.17-1.34v-1.1h9.2v1.1c-1.24,0-3.3,0.07-5.05,1.34l-4.81,3.57   v0.31c3.64,0,4.87,1.58,5.84,4.57C174.77,79.24,175.91,80.16,177.97,80.16z"
   id="path28" />
	<g
   id="g36">
		<path
   class="st1"
   d="M25.11,12.52l-0.27,0.03c-0.46-2.65-1.1-3.05-2.8-3.05h-4.45v16.6c0,1.71,0.18,2.29,1.52,2.29v0.3h-4.27v-0.3    c1.34,0,1.52-0.58,1.52-2.29V9.51h-4.45c-1.71,0-2.35,0.4-2.8,3.05l-0.27-0.03L9.42,8.9l0.06-0.3h14.99l0.06,0.3L25.11,12.52z"
   id="path30" />
		<path
   class="st1"
   d="M41.75,28.4v0.3h-4.27v-0.3c1.34,0,1.52-0.58,1.52-2.29v-6.82c0-3.08-0.79-5.21-3.66-5.21    c-5.03,0-5.97,4.97-5.97,9.14v2.89c0,1.71,0.18,2.29,1.52,2.29v0.3h-4.27v-0.3c1.34,0,1.52-0.58,1.52-2.29V9.35    c0-1.71-0.18-2.29-1.52-2.29v-0.3h1.83c0.49,0.03,0.91,0.24,0.91,1.52v9.63h0.15c0.76-2.62,2.41-4.75,5.91-4.75    c3.6,0,4.78,2.47,4.78,6.43v6.52C40.23,27.82,40.41,28.4,41.75,28.4z"
   id="path32" />
		<path
   class="st1"
   d="M50.32,29.01c-5.12,0-7.34-3.5-7.34-7.77c0-5.18,3.47-8.07,7.62-8.07c3.47,0,5.18,1.8,5.18,4.17    c0,4.75-7.13,5.03-11.58,3.6v0.52c0,4.33,2.8,6.64,5.82,6.64c2.22,0,4.97-1.19,4.66-4.33l1.22-0.61    C56.2,25.9,54.4,29.01,50.32,29.01z M44.28,20.02c6.73,1.83,10.27-0.06,10.27-2.71c0-1.68-1.1-3.23-3.96-3.23    C47,14.08,44.74,16.48,44.28,20.02z"
   id="path34" />
	</g>
</g>
<g
   id="g72">
	<path
   class="st2"
   d="M45.62-72.45c-1.82,0-2.37,0.62-2.95,2.44l-6.38,19.87h-1.44l-7.72-21.11l-7.41,21.11h-1.44l-6.69-19.87   c-0.62-1.85-1.17-2.44-2.99-2.44v-0.34h6.59v0.34c-2.71,0-2.78,0.58-2.16,2.44l6.14,18.29l7.41-21.08h1.44l7.69,21.08l5.9-18.29   c0.58-1.82,0.51-2.44-2.2-2.44v-0.34h6.21V-72.45z"
   id="path40" />
	<path
   class="st2"
   d="M51.16-49.79c-5.77,0-8.27-3.95-8.27-8.75c0-5.84,3.91-9.1,8.58-9.1c3.91,0,5.84,2.02,5.84,4.7   c0,5.35-8.03,5.66-13.04,4.05v0.58c0,4.87,3.16,7.48,6.56,7.48c2.51,0,5.59-1.34,5.25-4.87l1.37-0.69   C57.78-53.3,55.75-49.79,51.16-49.79z M44.36-59.92c7.59,2.06,11.57-0.07,11.57-3.05c0-1.89-1.24-3.64-4.46-3.64   C47.41-66.61,44.87-63.9,44.36-59.92z"
   id="path42" />
	<path
   class="st2"
   d="M62.28-53.06c0,1.92,0.21,2.57,1.72,2.57v0.34h-4.8v-0.34c1.51,0,1.72-0.65,1.72-2.57v-25.16   c0-1.92-0.21-2.57-1.72-2.57v-0.34h2.06c0.55,0.03,1.03,0.27,1.03,1.72V-53.06z"
   id="path44" />
	<path
   class="st2"
   d="M68.8-53.06c0,1.92,0.21,2.57,1.72,2.57v0.34h-4.8v-0.34c1.51,0,1.72-0.65,1.72-2.57v-25.16   c0-1.92-0.21-2.57-1.72-2.57v-0.34h2.06c0.55,0.03,1.03,0.27,1.03,1.72V-53.06z"
   id="path46" />
	<path
   class="st2"
   d="M81.54-49.79c-2.95,0-5.46-1.61-6.73-4.33h-0.17v2.61c0,1.37-0.69,1.37-1.37,1.37v-28.08   c0-1.92-0.21-2.57-1.72-2.57v-0.34h2.06c0.55,0.03,1.03,0.27,1.03,1.72v16.1h0.17c1.27-2.71,3.78-4.32,6.73-4.32   c4.43,0,7.69,3.3,7.69,8.92S85.97-49.79,81.54-49.79z M81.54-66.61c-4.6,0-6.73,3.47-6.73,7.89c0,4.43,2.13,7.89,6.73,7.89   c3.91,0,6.32-3.12,6.32-7.89S85.45-66.61,81.54-66.61z"
   id="path48" />
	<path
   class="st2"
   d="M99.91-49.79c-5.77,0-8.27-3.95-8.27-8.75c0-5.84,3.91-9.1,8.58-9.1c3.91,0,5.84,2.02,5.84,4.7   c0,5.35-8.03,5.66-13.04,4.05v0.58c0,4.87,3.16,7.48,6.56,7.48c2.51,0,5.59-1.34,5.25-4.87l1.37-0.69   C106.53-53.3,104.5-49.79,99.91-49.79z M93.11-59.92c7.59,2.06,11.57-0.07,11.57-3.05c0-1.89-1.24-3.64-4.46-3.64   C96.16-66.61,93.62-63.9,93.11-59.92z"
   id="path50" />
	<path
   class="st2"
   d="M132.86-50.48v0.34h-4.8v-0.34c1.51,0,1.72-0.65,1.72-2.57v-7.69c0-3.47-0.89-5.87-4.12-5.87   c-5.66,0-6.73,5.59-6.73,10.3v3.26c0,1.92,0.21,2.57,1.72,2.57v0.34h-4.8v-0.34c1.51,0,1.72-0.65,1.72-2.57v-11.33   c0-1.92-0.21-2.57-1.72-2.57v-0.34h2.06c0.55,0.03,1.03,0.24,1.03,1.48v3.54h0.17c0.86-2.95,2.71-5.35,6.66-5.35   c4.05,0,5.39,2.78,5.39,7.24v7.35C131.14-51.13,131.35-50.48,132.86-50.48z"
   id="path52" />
	<path
   class="st2"
   d="M149.51-64.69c0.38-1.44,0.14-1.92-0.58-1.92c-0.65,0-1.2,0.51-1.54,1.1c0.96,1.06,1.54,2.47,1.54,4.05   c0,3.6-2.92,6.18-6.86,6.18c-1.27,0-2.47-0.27-3.47-0.76c-1.06,0.76-1.34,1.27-1.34,1.99c0,1.27,0.86,2.23,5.11,1.68   c4.56-0.58,7.31,0.07,7.31,3.91s-3.47,5.53-7.52,5.53c-4.57,0-8.68-1.51-7.31-6.97l1.37,0.69c-1.37,4.12,2.13,5.25,5.97,5.25   c3.91,0,6.11-1.61,6.11-4.22c0-3.05-1.92-3.4-5.94-2.88c-5.87,0.76-6.49-1.37-6.49-2.57c0-1.03,0.51-1.89,1.92-2.88   c-1.61-1.1-2.61-2.85-2.61-4.94c0-3.6,2.92-6.18,6.86-6.18c1.85,0,3.47,0.55,4.67,1.51c0.69-1.13,1.58-1.51,2.47-1.51   c1.58,0,1.96,1.27,1.68,2.27L149.51-64.69z M147.49-62.22c-0.38-2.81-2.61-4.84-6.45-4.29c-3.23,0.45-4.81,2.99-4.39,5.8   c0.38,2.81,2.61,4.84,6.49,4.29C146.32-56.87,147.9-59.41,147.49-62.22z"
   id="path54" />
	<path
   class="st0"
   d="M90.12-24.2c1.24,0,1.72-0.82,1.72-3.02v-14.42c0-2.2-0.48-3.02-1.72-3.02v-1.1h2.27   c3.02,0.07,4.36,0.65,6.01,2.75l12.15,15.62v-36.36c0-2.2-0.48-3.02-1.72-3.02v-1.1h5.22v1.1c-1.24,0-1.72,0.82-1.72,3.02v40.65   c-3.4,0-4.81-0.51-6.56-2.75L93.62-41.47v14.24c0,2.2,0.48,3.02,1.72,3.02v1.1h-5.22V-24.2z"
   id="path56" />
	<path
   class="st0"
   d="M155.24-31.69c0,4.63-2.92,8.92-9.4,8.92c-6.49,0-9.4-4.29-9.4-8.92s2.92-8.92,9.4-8.92   C152.32-40.61,155.24-36.32,155.24-31.69z M150.47-31.1c0.55-4.36-0.45-7.24-3.67-7.65c-3.4-0.41-5.05,2.16-5.59,6.49   c-0.55,4.36,0.45,7.24,3.67,7.65C148.27-24.2,149.92-26.78,150.47-31.1z"
   id="path58" />
	<path
   class="st0"
   d="M134.37-31.69c0,4.63-2.92,8.92-9.4,8.92c-6.49,0-9.4-4.29-9.4-8.92s2.92-8.92,9.4-8.92   C131.45-40.61,134.37-36.32,134.37-31.69z M129.6-31.1c0.55-4.36-0.45-7.24-3.67-7.65c-3.4-0.41-5.05,2.16-5.59,6.49   c-0.55,4.36,0.45,7.24,3.67,7.65C127.4-24.2,129.05-26.78,129.6-31.1z"
   id="path60" />
	<path
   class="st0"
   d="M177.97-24.2v1.1c-5.35,0-7.93-0.58-9.16-5.32c-0.86-3.05-1.68-3.81-3.95-3.81l-1.99,1.48v3.54   c0,2.2,0.48,3.02,1.72,3.02v1.1h-8.17v-1.1c1.24,0,1.72-0.82,1.72-3.02V-43.7c0-2.2-0.48-3.02-1.72-3.02v-1.1h2.27   c2.68,0,4.19,0.21,4.19,3.02v11.81l6.56-4.84c1.75-1.27,2.06-1.34-1.17-1.34v-1.1h9.2v1.1c-1.24,0-3.3,0.07-5.05,1.34l-4.81,3.57   v0.31c3.64,0,4.87,1.58,5.84,4.57C174.77-25.13,175.91-24.2,177.97-24.2z"
   id="path62" />
	<g
   id="g70">
		<path
   class="st2"
   d="M25.11-91.84l-0.27,0.03c-0.46-2.65-1.1-3.05-2.8-3.05h-4.45v16.6c0,1.71,0.18,2.29,1.52,2.29v0.3h-4.27v-0.3    c1.34,0,1.52-0.58,1.52-2.29v-16.6h-4.45c-1.71,0-2.35,0.4-2.8,3.05l-0.27-0.03l0.58-3.63l0.06-0.3h14.99l0.06,0.3L25.11-91.84z"
   id="path64" />
		<path
   class="st2"
   d="M41.75-75.97v0.3h-4.27v-0.3c1.34,0,1.52-0.58,1.52-2.29v-6.82c0-3.08-0.79-5.21-3.66-5.21    c-5.03,0-5.97,4.97-5.97,9.14v2.89c0,1.71,0.18,2.29,1.52,2.29v0.3h-4.27v-0.3c1.34,0,1.52-0.58,1.52-2.29v-16.76    c0-1.71-0.18-2.29-1.52-2.29v-0.3h1.83c0.49,0.03,0.91,0.24,0.91,1.52v9.63h0.15c0.76-2.62,2.41-4.75,5.91-4.75    c3.6,0,4.78,2.47,4.78,6.43v6.52C40.23-76.55,40.41-75.97,41.75-75.97z"
   id="path66" />
		<path
   class="st2"
   d="M50.32-75.36c-5.12,0-7.34-3.5-7.34-7.77c0-5.18,3.47-8.07,7.62-8.07c3.47,0,5.18,1.8,5.18,4.17    c0,4.75-7.13,5.03-11.58,3.6v0.52c0,4.33,2.8,6.64,5.82,6.64c2.22,0,4.97-1.19,4.66-4.33l1.22-0.61    C56.2-78.47,54.4-75.36,50.32-75.36z M44.28-84.35c6.73,1.83,10.27-0.06,10.27-2.71c0-1.68-1.1-3.23-3.96-3.23    C47-90.29,44.74-87.88,44.28-84.35z"
   id="path68" />
	</g>
</g>
</svg>
